<svg width="147" height="36" viewBox="0 0 147 36" fill="none" xmlns="http://www.w3.org/2000/svg">
<path d="M5.152 0.0319996C5.504 0.0319996 5.8 0.0479994 6.04 0.079999C6.28 0.111999 6.496 0.175999 6.688 0.271999C6.88 0.351999 7.064 0.471999 7.24 0.631999C7.416 0.791999 7.616 1.008 7.84 1.28L24.448 22.28C24.384 21.608 24.336 20.96 24.304 20.336C24.272 19.696 24.256 19.096 24.256 18.536V0.0319996H31.408V35H27.184C26.56 35 26.032 34.904 25.6 34.712C25.168 34.52 24.752 34.168 24.352 33.656L7.864 12.824C7.912 13.432 7.952 14.032 7.984 14.624C8.016 15.2 8.032 15.744 8.032 16.256V35H0.88V0.0319996H5.152ZM47.8173 9.728C49.4653 9.728 50.9693 9.984 52.3293 10.496C53.7053 11.008 54.8813 11.752 55.8573 12.728C56.8493 13.704 57.6173 14.904 58.1613 16.328C58.7213 17.736 59.0013 19.336 59.0013 21.128C59.0013 21.688 58.9773 22.144 58.9293 22.496C58.8813 22.848 58.7933 23.128 58.6653 23.336C58.5373 23.544 58.3613 23.688 58.1373 23.768C57.9293 23.848 57.6573 23.888 57.3213 23.888H42.9693C43.2093 25.968 43.8413 27.48 44.8653 28.424C45.8893 29.352 47.2092 29.816 48.8253 29.816C49.6893 29.816 50.4333 29.712 51.0573 29.504C51.6813 29.296 52.2333 29.064 52.7133 28.808C53.2093 28.552 53.6573 28.32 54.0573 28.112C54.4733 27.904 54.9053 27.8 55.3533 27.8C55.9453 27.8 56.3933 28.016 56.6973 28.448L58.8573 31.112C58.0893 31.992 57.2573 32.712 56.3613 33.272C55.4813 33.816 54.5693 34.248 53.6253 34.568C52.6973 34.872 51.7613 35.08 50.8173 35.192C49.8893 35.32 49.0013 35.384 48.1533 35.384C46.4093 35.384 44.7693 35.104 43.2333 34.544C41.7133 33.968 40.3773 33.12 39.2253 32C38.0893 30.88 37.1853 29.488 36.5133 27.824C35.8573 26.16 35.5293 24.224 35.5293 22.016C35.5293 20.352 35.8093 18.776 36.3693 17.288C36.9453 15.8 37.7613 14.496 38.8173 13.376C39.8893 12.256 41.1773 11.368 42.6813 10.712C44.2013 10.056 45.9133 9.728 47.8173 9.728ZM47.9613 14.864C46.5373 14.864 45.4253 15.272 44.6253 16.088C43.8253 16.888 43.2973 18.048 43.0413 19.568H52.3293C52.3293 18.976 52.2493 18.4 52.0893 17.84C51.9453 17.28 51.6973 16.784 51.3453 16.352C51.0093 15.904 50.5613 15.544 50.0013 15.272C49.4413 15 48.7613 14.864 47.9613 14.864ZM67.7695 22.136L59.7535 10.112H66.9055C67.4335 10.112 67.8175 10.184 68.0575 10.328C68.3135 10.456 68.5375 10.68 68.7295 11L73.1695 18.368C73.2655 18.08 73.3855 17.8 73.5295 17.528C73.6735 17.256 73.8335 16.968 74.0095 16.664L77.1775 11.12C77.3855 10.752 77.6175 10.496 77.8735 10.352C78.1295 10.192 78.4415 10.112 78.8095 10.112H85.6255L77.6095 21.8L85.9615 35H78.8095C78.2815 35 77.8575 34.872 77.5375 34.616C77.2175 34.36 76.9535 34.056 76.7455 33.704L72.3055 26.072C72.2255 26.344 72.1295 26.6 72.0175 26.84C71.9055 27.08 71.7855 27.304 71.6575 27.512L68.0095 33.704C67.8175 34.04 67.5615 34.344 67.2415 34.616C66.9215 34.872 66.5215 35 66.0415 35H59.4175L67.7695 22.136ZM98.0691 35.384C96.8851 35.384 95.8371 35.216 94.9251 34.88C94.0291 34.528 93.2691 34.04 92.6451 33.416C92.0371 32.776 91.5731 32.008 91.2531 31.112C90.9331 30.216 90.7731 29.216 90.7731 28.112V15.248H88.6611C88.2771 15.248 87.9491 15.128 87.6771 14.888C87.4051 14.632 87.2691 14.264 87.2691 13.784V10.88L91.2291 10.112L92.6931 4.04C92.8851 3.272 93.4291 2.888 94.3251 2.888H98.2131V10.16H104.261V15.248H98.2131V27.608C98.2131 28.184 98.3491 28.664 98.6211 29.048C98.9091 29.416 99.3171 29.6 99.8451 29.6C100.117 29.6 100.341 29.576 100.517 29.528C100.709 29.464 100.869 29.4 100.997 29.336C101.141 29.256 101.269 29.192 101.381 29.144C101.509 29.08 101.653 29.048 101.813 29.048C102.037 29.048 102.213 29.104 102.341 29.216C102.485 29.312 102.629 29.472 102.773 29.696L105.029 33.224C104.069 33.944 102.989 34.488 101.789 34.856C100.589 35.208 99.3491 35.384 98.0691 35.384Z" fill="white"/>
<path d="M117.432 35H109.272V0.0319996H117.432V35ZM123.927 35V10.112H128.535C128.999 10.112 129.383 10.216 129.687 10.424C130.007 10.632 130.231 10.944 130.359 11.36L130.791 12.8C131.271 12.352 131.767 11.936 132.279 11.552C132.791 11.168 133.335 10.848 133.911 10.592C134.503 10.32 135.135 10.112 135.807 9.968C136.495 9.808 137.239 9.728 138.039 9.728C139.399 9.728 140.599 9.968 141.639 10.448C142.695 10.912 143.583 11.568 144.303 12.416C145.023 13.248 145.567 14.248 145.935 15.416C146.303 16.568 146.487 17.824 146.487 19.184V35H139.047V19.184C139.047 17.968 138.767 17.024 138.207 16.352C137.647 15.664 136.823 15.32 135.735 15.32C134.919 15.32 134.151 15.496 133.431 15.848C132.711 16.2 132.023 16.672 131.367 17.264V35H123.927Z" fill="#034366"/>
</svg>
